<svg xmlns="http://www.w3.org/2000/svg" width="230" height="86" viewBox="0 0 230 86" role="img" aria-labelledby="title">
  <title id="title">Musa Sukumani signature</title>
  <path d="M8 61c18-36 20-40 23-40 4 0-7 45-2 46 7 2 23-42 28-41 5 1-9 38-3 41 7 3 20-22 27-22 8 0-4 21 3 23 8 3 18-22 26-21 7 1-2 18 4 21 8 4 20-17 28-16 6 1 0 12 6 15 9 5 27-14 36-12 7 2 3 10 9 13 8 4 20-4 29-10" fill="none" stroke="#080808" stroke-width="3" stroke-linecap="round" stroke-linejoin="round"/>
  <text x="52" y="80" fill="#080808" font-family="Syne, sans-serif" font-size="11" font-weight="700" letter-spacing="2">MUSA SUKUMANI</text>
</svg>
